<svg width="157" height="42" viewBox="0 0 157 42" fill="none" xmlns="http://www.w3.org/2000/svg">
<path opacity="0.8" d="M1.14489 39V29.5455H4.33949C5.07813 29.5455 5.68442 29.6716 6.15838 29.924C6.63234 30.1733 6.98319 30.5165 7.21094 30.9535C7.43868 31.3905 7.55256 31.8875 7.55256 32.4446C7.55256 33.0017 7.43868 33.4956 7.21094 33.9265C6.98319 34.3574 6.63388 34.6959 6.163 34.9421C5.69212 35.1853 5.09044 35.3068 4.35795 35.3068H1.77273V34.2727H4.32102C4.82576 34.2727 5.23201 34.1989 5.53977 34.0511C5.85062 33.9034 6.07528 33.6941 6.21378 33.4233C6.35535 33.1494 6.42614 32.8232 6.42614 32.4446C6.42614 32.0661 6.35535 31.7352 6.21378 31.4521C6.07221 31.1689 5.846 30.9504 5.53516 30.7965C5.22431 30.6396 4.81345 30.5611 4.30256 30.5611H2.28977V39H1.14489ZM5.59517 34.7528L7.92188 39H6.59233L4.30256 34.7528H5.59517ZM12.2094 39.1477C11.5262 39.1477 10.9368 38.9969 10.4413 38.6953C9.94889 38.3906 9.5688 37.9659 9.30105 37.4212C9.03637 36.8733 8.90403 36.2363 8.90403 35.5099C8.90403 34.7836 9.03637 34.1435 9.30105 33.5895C9.5688 33.0324 9.9412 32.5985 10.4182 32.2876C10.8983 31.9737 11.4585 31.8168 12.0986 31.8168C12.468 31.8168 12.8327 31.8783 13.1927 32.0014C13.5528 32.1245 13.8806 32.3246 14.176 32.6016C14.4715 32.8755 14.7069 33.2386 14.8824 33.6911C15.0578 34.1435 15.1455 34.7005 15.1455 35.3622V35.8239H9.6796V34.8821H14.0376C14.0376 34.482 13.9575 34.125 13.7975 33.8111C13.6405 33.4972 13.4159 33.2494 13.1235 33.0678C12.8342 32.8862 12.4926 32.7955 12.0986 32.7955C11.6647 32.7955 11.2892 32.9032 10.9722 33.1186C10.6583 33.331 10.4167 33.608 10.2474 33.9496C10.0782 34.2912 9.99352 34.6574 9.99352 35.0483V35.6761C9.99352 36.2116 10.0858 36.6656 10.2705 37.038C10.4582 37.4073 10.7183 37.6889 11.0507 37.8828C11.3831 38.0736 11.7693 38.169 12.2094 38.169C12.4957 38.169 12.7542 38.129 12.985 38.049C13.2189 37.9659 13.4205 37.8428 13.5898 37.6797C13.759 37.5135 13.8898 37.3073 13.9822 37.0611L15.0347 37.3565C14.9239 37.7135 14.7377 38.0275 14.4761 38.2983C14.2145 38.5661 13.8914 38.7753 13.5067 38.9261C13.122 39.0739 12.6895 39.1477 12.2094 39.1477ZM19.665 41.8068C19.1388 41.8068 18.6863 41.7391 18.3078 41.6037C17.9292 41.4714 17.6138 41.2959 17.3614 41.0774C17.1121 40.862 16.9136 40.6312 16.7659 40.3849L17.6338 39.7756C17.7323 39.9048 17.8569 40.0526 18.0077 40.2188C18.1585 40.388 18.3647 40.5342 18.6263 40.6573C18.891 40.7835 19.2372 40.8466 19.665 40.8466C20.2375 40.8466 20.7099 40.7081 21.0823 40.4311C21.4547 40.1541 21.6409 39.7202 21.6409 39.1293V37.6889H21.5486C21.4685 37.8182 21.3547 37.9782 21.2069 38.169C21.0623 38.3568 20.853 38.5245 20.5791 38.6722C20.3083 38.8169 19.942 38.8892 19.4804 38.8892C18.9079 38.8892 18.394 38.7538 17.9385 38.483C17.4861 38.2121 17.1275 37.8182 16.8628 37.3011C16.6012 36.7841 16.4704 36.1562 16.4704 35.4176C16.4704 34.6913 16.5982 34.0588 16.8536 33.5202C17.109 32.9786 17.4645 32.56 17.92 32.2646C18.3755 31.966 18.9018 31.8168 19.4988 31.8168C19.9605 31.8168 20.3267 31.8937 20.5976 32.0476C20.8715 32.1984 21.0808 32.3707 21.2254 32.5646C21.3731 32.7554 21.487 32.9124 21.567 33.0355H21.6778V31.9091H22.7304V39.2031C22.7304 39.8125 22.5919 40.308 22.3149 40.6896C22.041 41.0743 21.6717 41.3559 21.2069 41.5344C20.7453 41.716 20.2313 41.8068 19.665 41.8068ZM19.6281 37.9105C20.0651 37.9105 20.4345 37.8105 20.7361 37.6104C21.0377 37.4104 21.267 37.1226 21.4239 36.7472C21.5809 36.3717 21.6594 35.9223 21.6594 35.3991C21.6594 34.8883 21.5824 34.4374 21.4285 34.0465C21.2747 33.6557 21.0469 33.3494 20.7453 33.1278C20.4437 32.9062 20.0713 32.7955 19.6281 32.7955C19.1665 32.7955 18.7818 32.9124 18.474 33.1463C18.1693 33.3802 17.94 33.6941 17.7861 34.0881C17.6353 34.482 17.5599 34.919 17.5599 35.3991C17.5599 35.8916 17.6369 36.3271 17.7907 36.7056C17.9477 37.0811 18.1785 37.3765 18.4832 37.592C18.791 37.8043 19.1726 37.9105 19.6281 37.9105ZM24.7247 39V31.9091H25.8142V39H24.7247ZM25.2787 30.7273C25.0663 30.7273 24.8832 30.6549 24.7293 30.5103C24.5785 30.3656 24.5031 30.1918 24.5031 29.9886C24.5031 29.7855 24.5785 29.6116 24.7293 29.467C24.8832 29.3223 25.0663 29.25 25.2787 29.25C25.491 29.25 25.6726 29.3223 25.8234 29.467C25.9773 29.6116 26.0542 29.7855 26.0542 29.9886C26.0542 30.1918 25.9773 30.3656 25.8234 30.5103C25.6726 30.6549 25.491 30.7273 25.2787 30.7273ZM32.8324 33.4972L31.8537 33.7741C31.7921 33.611 31.7013 33.4525 31.5813 33.2987C31.4644 33.1417 31.3043 33.0124 31.1012 32.9109C30.8981 32.8093 30.638 32.7585 30.321 32.7585C29.8871 32.7585 29.5254 32.8585 29.2362 33.0586C28.9499 33.2556 28.8068 33.5064 28.8068 33.8111C28.8068 34.0819 28.9053 34.2958 29.1023 34.4528C29.2992 34.6097 29.607 34.7405 30.0256 34.8452L31.0781 35.1037C31.7121 35.2576 32.1845 35.493 32.4954 35.81C32.8062 36.1239 32.9616 36.5286 32.9616 37.0241C32.9616 37.4304 32.8447 37.7936 32.6108 38.1136C32.38 38.4337 32.0568 38.6861 31.6413 38.8707C31.2259 39.0554 30.7427 39.1477 30.1918 39.1477C29.4685 39.1477 28.8699 38.9908 28.396 38.6768C27.922 38.3629 27.6219 37.9044 27.4957 37.3011L28.5298 37.0426C28.6283 37.4242 28.8145 37.7105 29.0884 37.9013C29.3654 38.0921 29.727 38.1875 30.1733 38.1875C30.6811 38.1875 31.0843 38.0798 31.3828 37.8643C31.6844 37.6458 31.8352 37.3842 31.8352 37.0795C31.8352 36.8333 31.7491 36.6271 31.5767 36.4609C31.4044 36.2917 31.1397 36.1655 30.7827 36.0824L29.6009 35.8054C28.9515 35.6515 28.4744 35.413 28.1697 35.0898C27.8681 34.7636 27.7173 34.3558 27.7173 33.8665C27.7173 33.4664 27.8297 33.1125 28.0543 32.8047C28.2821 32.4969 28.5914 32.2553 28.9822 32.0799C29.3762 31.9045 29.8224 31.8168 30.321 31.8168C31.0227 31.8168 31.5736 31.9706 31.9737 32.2784C32.3769 32.5862 32.6631 32.9924 32.8324 33.4972ZM37.6855 31.9091V32.8324H34.0107V31.9091H37.6855ZM35.0818 30.2102H36.1713V36.9688C36.1713 37.2765 36.2159 37.5073 36.3051 37.6612C36.3975 37.812 36.5144 37.9136 36.656 37.9659C36.8006 38.0152 36.953 38.0398 37.113 38.0398C37.233 38.0398 37.3315 38.0336 37.4085 38.0213C37.4854 38.0059 37.547 37.9936 37.5931 37.9844L37.8147 38.9631C37.7409 38.9908 37.6378 39.0185 37.5054 39.0462C37.3731 39.0769 37.2053 39.0923 37.0022 39.0923C36.6945 39.0923 36.3928 39.0262 36.0974 38.8938C35.805 38.7615 35.5619 38.5599 35.368 38.2891C35.1772 38.0182 35.0818 37.6766 35.0818 37.2642V30.2102ZM39.3243 39V31.9091H40.3769V32.9801H40.4507C40.58 32.6293 40.8139 32.3446 41.1524 32.1261C41.491 31.9076 41.8726 31.7983 42.2973 31.7983C42.3773 31.7983 42.4774 31.7998 42.5974 31.8029C42.7174 31.806 42.8082 31.8106 42.8698 31.8168V32.9247C42.8328 32.9155 42.7482 32.9016 42.6159 32.8832C42.4866 32.8616 42.3496 32.8509 42.205 32.8509C41.8603 32.8509 41.5525 32.9232 41.2817 33.0678C41.0139 33.2094 40.8016 33.4064 40.6446 33.6587C40.4907 33.908 40.4138 34.1927 40.4138 34.5128V39H39.3243ZM46.2479 39.1662C45.7985 39.1662 45.3907 39.0816 45.0245 38.9123C44.6583 38.7399 44.3674 38.4922 44.152 38.169C43.9366 37.8428 43.8288 37.4489 43.8288 36.9872C43.8288 36.581 43.9089 36.2517 44.0689 35.9993C44.2289 35.7438 44.4428 35.5438 44.7106 35.3991C44.9783 35.2545 45.2738 35.1468 45.5969 35.076C45.9232 35.0021 46.2509 34.9437 46.5803 34.9006C47.0111 34.8452 47.3604 34.8036 47.6282 34.7759C47.899 34.7451 48.096 34.6944 48.2191 34.6236C48.3453 34.5528 48.4084 34.4297 48.4084 34.2543V34.2173C48.4084 33.7618 48.2837 33.4079 48.0344 33.1555C47.7882 32.9032 47.4143 32.777 46.9126 32.777C46.3925 32.777 45.9847 32.8909 45.6893 33.1186C45.3938 33.3464 45.1861 33.5895 45.0661 33.848L44.032 33.4787C44.2166 33.0478 44.4628 32.7124 44.7706 32.4723C45.0814 32.2292 45.42 32.0599 45.7862 31.9645C46.1555 31.866 46.5187 31.8168 46.8757 31.8168C47.1035 31.8168 47.3651 31.8445 47.6605 31.8999C47.959 31.9522 48.2468 32.0614 48.5238 32.2276C48.8039 32.3938 49.0362 32.6446 49.2209 32.9801C49.4055 33.3156 49.4979 33.7649 49.4979 34.3281V39H48.4084V38.0398H48.353C48.2791 38.1937 48.156 38.3583 47.9837 38.5337C47.8113 38.7092 47.582 38.8584 47.2958 38.9815C47.0096 39.1046 46.6603 39.1662 46.2479 39.1662ZM46.4141 38.1875C46.8449 38.1875 47.2081 38.1029 47.5036 37.9336C47.8021 37.7643 48.0268 37.5458 48.1776 37.2781C48.3314 37.0103 48.4084 36.7287 48.4084 36.4332V35.4361C48.3622 35.4915 48.2607 35.5423 48.1037 35.5884C47.9498 35.6315 47.7713 35.67 47.5682 35.7038C47.3681 35.7346 47.1727 35.7623 46.9819 35.7869C46.7942 35.8085 46.6418 35.8269 46.5249 35.8423C46.2417 35.8793 45.977 35.9393 45.7308 36.0224C45.4877 36.1024 45.2907 36.224 45.1399 36.3871C44.9922 36.5471 44.9183 36.7656 44.9183 37.0426C44.9183 37.4212 45.0584 37.7074 45.3384 37.9013C45.6216 38.0921 45.9801 38.1875 46.4141 38.1875ZM54.5702 31.9091V32.8324H50.8955V31.9091H54.5702ZM51.9665 30.2102H53.056V36.9688C53.056 37.2765 53.1006 37.5073 53.1899 37.6612C53.2822 37.812 53.3992 37.9136 53.5407 37.9659C53.6854 38.0152 53.8377 38.0398 53.9978 38.0398C54.1178 38.0398 54.2163 38.0336 54.2932 38.0213C54.3702 38.0059 54.4317 37.9936 54.4779 37.9844L54.6995 38.9631C54.6256 38.9908 54.5225 39.0185 54.3902 39.0462C54.2578 39.0769 54.0901 39.0923 53.887 39.0923C53.5792 39.0923 53.2776 39.0262 52.9822 38.8938C52.6898 38.7615 52.4466 38.5599 52.2528 38.2891C52.0619 38.0182 51.9665 37.6766 51.9665 37.2642V30.2102ZM56.2091 39V31.9091H57.2986V39H56.2091ZM56.7631 30.7273C56.5507 30.7273 56.3676 30.6549 56.2137 30.5103C56.0629 30.3656 55.9875 30.1918 55.9875 29.9886C55.9875 29.7855 56.0629 29.6116 56.2137 29.467C56.3676 29.3223 56.5507 29.25 56.7631 29.25C56.9754 29.25 57.157 29.3223 57.3078 29.467C57.4617 29.6116 57.5386 29.7855 57.5386 29.9886C57.5386 30.1918 57.4617 30.3656 57.3078 30.5103C57.157 30.6549 56.9754 30.7273 56.7631 30.7273ZM62.1747 39.1477C61.5346 39.1477 60.9729 38.9954 60.4897 38.6907C60.0096 38.386 59.6341 37.9598 59.3633 37.4119C59.0955 36.8641 58.9616 36.224 58.9616 35.4915C58.9616 34.7528 59.0955 34.1081 59.3633 33.5572C59.6341 33.0063 60.0096 32.5785 60.4897 32.2738C60.9729 31.9691 61.5346 31.8168 62.1747 31.8168C62.8149 31.8168 63.375 31.9691 63.8551 32.2738C64.3383 32.5785 64.7138 33.0063 64.9815 33.5572C65.2524 34.1081 65.3878 34.7528 65.3878 35.4915C65.3878 36.224 65.2524 36.8641 64.9815 37.4119C64.7138 37.9598 64.3383 38.386 63.8551 38.6907C63.375 38.9954 62.8149 39.1477 62.1747 39.1477ZM62.1747 38.169C62.661 38.169 63.0611 38.0444 63.375 37.7951C63.6889 37.5458 63.9213 37.218 64.0721 36.8118C64.2229 36.4055 64.2983 35.9654 64.2983 35.4915C64.2983 35.0175 64.2229 34.5759 64.0721 34.1665C63.9213 33.7572 63.6889 33.4264 63.375 33.174C63.0611 32.9216 62.661 32.7955 62.1747 32.7955C61.6884 32.7955 61.2884 32.9216 60.9744 33.174C60.6605 33.4264 60.4281 33.7572 60.2773 34.1665C60.1265 34.5759 60.0511 35.0175 60.0511 35.4915C60.0511 35.9654 60.1265 36.4055 60.2773 36.8118C60.4281 37.218 60.6605 37.5458 60.9744 37.7951C61.2884 38.0444 61.6884 38.169 62.1747 38.169ZM68.1404 34.7344V39H67.0509V31.9091H68.1034V33.017H68.1958C68.3619 32.657 68.6143 32.3677 68.9529 32.1491C69.2914 31.9276 69.7284 31.8168 70.2639 31.8168C70.7441 31.8168 71.1642 31.9152 71.5242 32.1122C71.8843 32.3061 72.1644 32.6016 72.3644 32.9986C72.5645 33.3925 72.6645 33.8911 72.6645 34.4943V39H71.575V34.5682C71.575 34.0111 71.4304 33.5772 71.1411 33.2663C70.8518 32.9524 70.4548 32.7955 69.95 32.7955C69.6022 32.7955 69.2914 32.8709 69.0175 33.0217C68.7467 33.1725 68.5328 33.3925 68.3758 33.6818C68.2188 33.9711 68.1404 34.322 68.1404 34.7344ZM85.9565 29.5455V39H84.8485L79.6966 31.5767H79.6042V39H78.4593V29.5455H79.5673L84.7377 36.9872H84.8301V29.5455H85.9565ZM90.9804 39.1477C90.3402 39.1477 89.7786 38.9954 89.2954 38.6907C88.8153 38.386 88.4398 37.9598 88.1689 37.4119C87.9012 36.8641 87.7673 36.224 87.7673 35.4915C87.7673 34.7528 87.9012 34.1081 88.1689 33.5572C88.4398 33.0063 88.8153 32.5785 89.2954 32.2738C89.7786 31.9691 90.3402 31.8168 90.9804 31.8168C91.6205 31.8168 92.1807 31.9691 92.6608 32.2738C93.144 32.5785 93.5194 33.0063 93.7872 33.5572C94.058 34.1081 94.1934 34.7528 94.1934 35.4915C94.1934 36.224 94.058 36.8641 93.7872 37.4119C93.5194 37.9598 93.144 38.386 92.6608 38.6907C92.1807 38.9954 91.6205 39.1477 90.9804 39.1477ZM90.9804 38.169C91.4666 38.169 91.8667 38.0444 92.1807 37.7951C92.4946 37.5458 92.7269 37.218 92.8778 36.8118C93.0286 36.4055 93.104 35.9654 93.104 35.4915C93.104 35.0175 93.0286 34.5759 92.8778 34.1665C92.7269 33.7572 92.4946 33.4264 92.1807 33.174C91.8667 32.9216 91.4666 32.7955 90.9804 32.7955C90.4941 32.7955 90.094 32.9216 89.7801 33.174C89.4662 33.4264 89.2338 33.7572 89.083 34.1665C88.9322 34.5759 88.8568 35.0175 88.8568 35.4915C88.8568 35.9654 88.9322 36.4055 89.083 36.8118C89.2338 37.218 89.4662 37.5458 89.7801 37.7951C90.094 38.0444 90.4941 38.169 90.9804 38.169ZM96.6506 39.0739C96.4228 39.0739 96.2274 38.9923 96.0643 38.8292C95.9012 38.6661 95.8196 38.4706 95.8196 38.2429C95.8196 38.0152 95.9012 37.8197 96.0643 37.6566C96.2274 37.4935 96.4228 37.4119 96.6506 37.4119C96.8783 37.4119 97.0737 37.4935 97.2369 37.6566C97.4 37.8197 97.4815 38.0152 97.4815 38.2429C97.4815 38.3937 97.4431 38.5322 97.3661 38.6584C97.2923 38.7846 97.1922 38.8861 97.0661 38.9631C96.9429 39.0369 96.8045 39.0739 96.6506 39.0739ZM102.853 37.0611V36.1193L107.008 29.5455H107.691V31.0043H107.229L104.09 35.9716V36.0455H109.685V37.0611H102.853ZM107.303 39V36.7749V36.3363V29.5455H108.393V39H107.303ZM114.612 29.5455V39H113.467V30.7457H113.412L111.104 32.2784V31.1151L113.467 29.5455H114.612ZM120.286 39.1293C119.744 39.1293 119.256 39.0215 118.822 38.8061C118.388 38.5907 118.041 38.2952 117.779 37.9197C117.517 37.5443 117.374 37.1165 117.35 36.6364H118.458C118.501 37.0642 118.695 37.4181 119.039 37.6982C119.387 37.9751 119.803 38.1136 120.286 38.1136C120.674 38.1136 121.018 38.0228 121.32 37.8413C121.625 37.6597 121.863 37.4104 122.035 37.0934C122.211 36.7733 122.299 36.4117 122.299 36.0085C122.299 35.5961 122.208 35.2283 122.026 34.9052C121.848 34.579 121.601 34.322 121.288 34.1342C120.974 33.9465 120.615 33.8511 120.212 33.848C119.923 33.8449 119.626 33.8896 119.321 33.9819C119.016 34.0711 118.765 34.1866 118.568 34.3281L117.497 34.1989L118.07 29.5455H122.982V30.5611H119.03L118.698 33.3494H118.753C118.947 33.1955 119.19 33.0678 119.483 32.9663C119.775 32.8647 120.08 32.8139 120.397 32.8139C120.975 32.8139 121.491 32.9524 121.943 33.2294C122.399 33.5033 122.756 33.8788 123.014 34.3558C123.276 34.8329 123.407 35.3776 123.407 35.9901C123.407 36.5933 123.271 37.1319 123 37.6058C122.733 38.0767 122.363 38.4491 121.892 38.723C121.421 38.9938 120.886 39.1293 120.286 39.1293ZM128.38 39.1293C127.992 39.1231 127.604 39.0492 127.216 38.9077C126.828 38.7661 126.475 38.5276 126.154 38.1921C125.834 37.8536 125.577 37.3965 125.384 36.821C125.19 36.2424 125.093 35.5161 125.093 34.642C125.093 33.8049 125.171 33.0632 125.328 32.4169C125.485 31.7675 125.713 31.2212 126.011 30.7781C126.31 30.3318 126.67 29.9933 127.092 29.7624C127.516 29.5316 127.995 29.4162 128.527 29.4162C129.057 29.4162 129.528 29.5224 129.94 29.7347C130.355 29.944 130.694 30.2364 130.956 30.6119C131.217 30.9873 131.386 31.4197 131.463 31.9091H130.337C130.232 31.4844 130.029 31.132 129.728 30.8519C129.426 30.5719 129.026 30.4318 128.527 30.4318C127.795 30.4318 127.218 30.7504 126.796 31.3874C126.378 32.0245 126.167 32.9186 126.164 34.0696H126.238C126.41 33.808 126.615 33.5849 126.852 33.4002C127.092 33.2125 127.356 33.0678 127.646 32.9663C127.935 32.8647 128.241 32.8139 128.564 32.8139C129.106 32.8139 129.601 32.9493 130.051 33.2202C130.5 33.4879 130.86 33.8588 131.131 34.3327C131.402 34.8036 131.537 35.3438 131.537 35.9531C131.537 36.5379 131.406 37.0734 131.145 37.5597C130.883 38.0429 130.516 38.4276 130.042 38.7138C129.571 38.9969 129.017 39.1354 128.38 39.1293ZM128.38 38.1136C128.767 38.1136 129.115 38.0167 129.423 37.8228C129.734 37.6289 129.978 37.3688 130.157 37.0426C130.339 36.7164 130.429 36.3532 130.429 35.9531C130.429 35.5623 130.342 35.2068 130.166 34.8867C129.994 34.5636 129.755 34.3066 129.451 34.1158C129.149 33.925 128.804 33.8295 128.417 33.8295C128.124 33.8295 127.852 33.888 127.599 34.005C127.347 34.1188 127.125 34.2758 126.935 34.4759C126.747 34.6759 126.599 34.9052 126.491 35.1637C126.384 35.4192 126.33 35.6884 126.33 35.9716C126.33 36.3471 126.418 36.6979 126.593 37.0241C126.772 37.3504 127.015 37.6135 127.322 37.8136C127.633 38.0136 127.986 38.1136 128.38 38.1136ZM136.492 39.1293C136.104 39.1231 135.716 39.0492 135.329 38.9077C134.941 38.7661 134.587 38.5276 134.267 38.1921C133.947 37.8536 133.69 37.3965 133.496 36.821C133.302 36.2424 133.205 35.5161 133.205 34.642C133.205 33.8049 133.283 33.0632 133.44 32.4169C133.597 31.7675 133.825 31.2212 134.124 30.7781C134.422 30.3318 134.782 29.9933 135.204 29.7624C135.629 29.5316 136.107 29.4162 136.64 29.4162C137.169 29.4162 137.64 29.5224 138.052 29.7347C138.468 29.944 138.806 30.2364 139.068 30.6119C139.33 30.9873 139.499 31.4197 139.576 31.9091H138.449C138.345 31.4844 138.142 31.132 137.84 30.8519C137.538 30.5719 137.138 30.4318 136.64 30.4318C135.907 30.4318 135.33 30.7504 134.908 31.3874C134.49 32.0245 134.279 32.9186 134.276 34.0696H134.35C134.522 33.808 134.727 33.5849 134.964 33.4002C135.204 33.2125 135.469 33.0678 135.758 32.9663C136.047 32.8647 136.353 32.8139 136.677 32.8139C137.218 32.8139 137.714 32.9493 138.163 33.2202C138.612 33.4879 138.973 33.8588 139.243 34.3327C139.514 34.8036 139.65 35.3438 139.65 35.9531C139.65 36.5379 139.519 37.0734 139.257 37.5597C138.996 38.0429 138.628 38.4276 138.154 38.7138C137.683 38.9969 137.129 39.1354 136.492 39.1293ZM136.492 38.1136C136.88 38.1136 137.227 38.0167 137.535 37.8228C137.846 37.6289 138.091 37.3688 138.269 37.0426C138.451 36.7164 138.542 36.3532 138.542 35.9531C138.542 35.5623 138.454 35.2068 138.278 34.8867C138.106 34.5636 137.868 34.3066 137.563 34.1158C137.261 33.925 136.917 33.8295 136.529 33.8295C136.236 33.8295 135.964 33.888 135.712 34.005C135.459 34.1188 135.238 34.2758 135.047 34.4759C134.859 34.6759 134.711 34.9052 134.604 35.1637C134.496 35.4192 134.442 35.6884 134.442 35.9716C134.442 36.3471 134.53 36.6979 134.705 37.0241C134.884 37.3504 135.127 37.6135 135.435 37.8136C135.746 38.0136 136.098 38.1136 136.492 38.1136ZM144.549 39.1293C143.853 39.1293 143.261 38.94 142.771 38.5614C142.282 38.1798 141.908 37.6274 141.65 36.9041C141.391 36.1778 141.262 35.3007 141.262 34.2727C141.262 33.2509 141.391 32.3784 141.65 31.6552C141.911 30.9289 142.287 30.3749 142.776 29.9933C143.269 29.6085 143.859 29.4162 144.549 29.4162C145.238 29.4162 145.828 29.6085 146.317 29.9933C146.809 30.3749 147.185 30.9289 147.443 31.6552C147.705 32.3784 147.836 33.2509 147.836 34.2727C147.836 35.3007 147.706 36.1778 147.448 36.9041C147.189 37.6274 146.816 38.1798 146.326 38.5614C145.837 38.94 145.244 39.1293 144.549 39.1293ZM144.549 38.1136C145.238 38.1136 145.774 37.7812 146.155 37.1165C146.537 36.4517 146.728 35.5038 146.728 34.2727C146.728 33.4541 146.64 32.757 146.465 32.1815C146.292 31.6059 146.043 31.1674 145.717 30.8658C145.394 30.5642 145.004 30.4134 144.549 30.4134C143.866 30.4134 143.332 30.7504 142.947 31.4244C142.562 32.0953 142.37 33.0447 142.37 34.2727C142.37 35.0914 142.456 35.7869 142.628 36.3594C142.801 36.9318 143.048 37.3673 143.372 37.6658C143.698 37.9644 144.09 38.1136 144.549 38.1136ZM149.368 37.0611V36.1193L153.523 29.5455H154.206V31.0043H153.745L150.606 35.9716V36.0455H156.201V37.0611H149.368ZM153.819 39V36.7749V36.3363V29.5455H154.908V39H153.819Z" fill="white"/>
<path opacity="0.8" d="M2.64524 3.54545V13H0.932528V3.54545H2.64524ZM9.63805 6.14453C9.59496 5.74136 9.41338 5.42744 9.09331 5.20277C8.77631 4.9781 8.3639 4.86577 7.85609 4.86577C7.49908 4.86577 7.19286 4.91963 6.93741 5.02734C6.68197 5.13506 6.48654 5.28125 6.35112 5.46591C6.2157 5.65057 6.14645 5.86139 6.14338 6.09837C6.14338 6.29534 6.188 6.46615 6.27726 6.6108C6.36958 6.75544 6.49423 6.87855 6.65119 6.98011C6.80815 7.0786 6.98204 7.16169 7.17285 7.2294C7.36367 7.29711 7.55602 7.35405 7.74991 7.40021L8.63627 7.6218C8.99328 7.7049 9.33644 7.81723 9.66575 7.95881C9.99814 8.10038 10.2951 8.27888 10.5567 8.49432C10.8214 8.70975 11.0307 8.96982 11.1846 9.2745C11.3385 9.57919 11.4154 9.9362 11.4154 10.3455C11.4154 10.8995 11.2738 11.3873 10.9907 11.8089C10.7075 12.2275 10.2982 12.5553 9.7627 12.7923C9.23026 13.0262 8.58549 13.1431 7.82839 13.1431C7.09283 13.1431 6.45422 13.0292 5.91255 12.8015C5.37396 12.5737 4.95233 12.2414 4.64764 11.8043C4.34603 11.3673 4.18291 10.8349 4.15829 10.207H5.84331C5.86793 10.5363 5.96949 10.8103 6.14799 11.0288C6.3265 11.2473 6.55886 11.4104 6.84508 11.5181C7.13438 11.6258 7.45753 11.6797 7.81454 11.6797C8.18694 11.6797 8.51317 11.6243 8.79324 11.5135C9.07638 11.3996 9.29797 11.2427 9.45801 11.0426C9.61805 10.8395 9.6996 10.6025 9.70268 10.3317C9.6996 10.0855 9.62728 9.88234 9.48571 9.7223C9.34413 9.55919 9.14563 9.42377 8.89018 9.31605C8.63781 9.20526 8.34236 9.10677 8.00382 9.0206L6.92818 8.74361C6.14953 8.54356 5.534 8.24041 5.08159 7.83416C4.63225 7.42483 4.40758 6.88163 4.40758 6.20454C4.40758 5.64749 4.55839 5.15968 4.86 4.74112C5.16468 4.32256 5.57863 3.99787 6.10183 3.76704C6.62503 3.53314 7.21748 3.41619 7.87917 3.41619C8.5501 3.41619 9.13793 3.53314 9.64267 3.76704C10.1505 3.99787 10.549 4.31948 10.8383 4.73189C11.1276 5.14122 11.2769 5.6121 11.2861 6.14453H9.63805ZM21.3904 8.27273C21.3904 9.29143 21.1996 10.1639 20.818 10.8903C20.4395 11.6135 19.9224 12.1675 19.2669 12.5522C18.6144 12.9369 17.8742 13.1293 17.0463 13.1293C16.2185 13.1293 15.4767 12.9369 14.8212 12.5522C14.1687 12.1644 13.6517 11.6089 13.2701 10.8857C12.8915 10.1593 12.7022 9.28835 12.7022 8.27273C12.7022 7.25402 12.8915 6.38305 13.2701 5.6598C13.6517 4.93348 14.1687 4.37796 14.8212 3.99325C15.4767 3.60855 16.2185 3.41619 17.0463 3.41619C17.8742 3.41619 18.6144 3.60855 19.2669 3.99325C19.9224 4.37796 20.4395 4.93348 20.818 5.6598C21.1996 6.38305 21.3904 7.25402 21.3904 8.27273ZM19.6685 8.27273C19.6685 7.55563 19.5562 6.95088 19.3315 6.45845C19.1099 5.96295 18.8021 5.58902 18.4082 5.33665C18.0143 5.0812 17.5603 4.95348 17.0463 4.95348C16.5324 4.95348 16.0784 5.0812 15.6845 5.33665C15.2905 5.58902 14.9812 5.96295 14.7566 6.45845C14.535 6.95088 14.4242 7.55563 14.4242 8.27273C14.4242 8.98982 14.535 9.59612 14.7566 10.0916C14.9812 10.584 15.2905 10.958 15.6845 11.2134C16.0784 11.4658 16.5324 11.592 17.0463 11.592C17.5603 11.592 18.0143 11.4658 18.4082 11.2134C18.8021 10.958 19.1099 10.584 19.3315 10.0916C19.5562 9.59612 19.6685 8.98982 19.6685 8.27273ZM29.4243 3.41619C29.8767 3.41927 30.3168 3.49929 30.7446 3.65625C31.1755 3.81013 31.5632 4.0625 31.9079 4.41335C32.2526 4.76113 32.5265 5.22739 32.7297 5.81214C32.9328 6.3969 33.0344 7.12015 33.0344 7.98189C33.0374 8.79439 32.9513 9.52071 32.7758 10.1609C32.6035 10.7979 32.3557 11.3365 32.0326 11.7766C31.7094 12.2167 31.3201 12.5522 30.8646 12.783C30.4091 13.0138 29.8967 13.1293 29.3273 13.1293C28.7303 13.1293 28.2009 13.0123 27.7393 12.7784C27.2807 12.5445 26.9098 12.2244 26.6267 11.8182C26.3435 11.4119 26.1697 10.9472 26.105 10.424H27.79C27.8762 10.7995 28.0516 11.098 28.3163 11.3196C28.5841 11.5381 28.9211 11.6474 29.3273 11.6474C29.9829 11.6474 30.4876 11.3627 30.8415 10.7933C31.1955 10.224 31.3724 9.433 31.3724 8.42045H31.3078C31.157 8.69129 30.9616 8.92519 30.7215 9.12216C30.4814 9.31605 30.2091 9.46532 29.9044 9.56996C29.6028 9.6746 29.2827 9.72692 28.9442 9.72692C28.3902 9.72692 27.8916 9.59458 27.4484 9.3299C27.0083 9.06522 26.659 8.70206 26.4005 8.24041C26.145 7.77876 26.0158 7.25095 26.0127 6.65696C26.0127 6.04143 26.1543 5.48899 26.4374 4.99964C26.7236 4.50722 27.1222 4.11944 27.6331 3.83629C28.144 3.55007 28.741 3.41004 29.4243 3.41619ZM29.4289 4.80114C29.0965 4.80114 28.7964 4.88269 28.5287 5.04581C28.264 5.20585 28.0547 5.42436 27.9008 5.70135C27.75 5.97526 27.6746 6.28149 27.6746 6.62003C27.6777 6.95549 27.7531 7.26018 27.9008 7.53409C28.0516 7.808 28.2563 8.02498 28.5148 8.18501C28.7764 8.34505 29.075 8.42507 29.4104 8.42507C29.6597 8.42507 29.8921 8.37737 30.1075 8.28196C30.3229 8.18655 30.5107 8.05421 30.6707 7.88494C30.8338 7.71259 30.96 7.51716 31.0493 7.29865C31.1416 7.08014 31.1862 6.84931 31.1831 6.60618C31.1831 6.28303 31.1062 5.98449 30.9523 5.71058C30.8015 5.43667 30.5938 5.21662 30.3291 5.05043C30.0675 4.88423 29.7674 4.80114 29.4289 4.80114ZM38.0663 13.18C37.3061 13.18 36.6537 12.9877 36.1089 12.603C35.5673 12.2152 35.1502 11.6566 34.8579 10.9272C34.5686 10.1947 34.4239 9.31297 34.4239 8.28196C34.427 7.25095 34.5732 6.37382 34.8625 5.65057C35.1549 4.92424 35.5719 4.37026 36.1135 3.98864C36.6583 3.60701 37.3092 3.41619 38.0663 3.41619C38.8234 3.41619 39.4743 3.60701 40.0191 3.98864C40.5638 4.37026 40.9809 4.92424 41.2702 5.65057C41.5625 6.37689 41.7087 7.25402 41.7087 8.28196C41.7087 9.31605 41.5625 10.1993 41.2702 10.9318C40.9809 11.6612 40.5638 12.2183 40.0191 12.603C39.4774 12.9877 38.8265 13.18 38.0663 13.18ZM38.0663 11.7351C38.6572 11.7351 39.1235 11.4442 39.4651 10.8626C39.8098 10.2778 39.9822 9.41761 39.9822 8.28196C39.9822 7.53101 39.9037 6.90009 39.7467 6.3892C39.5898 5.87831 39.3682 5.49361 39.0819 5.23509C38.7957 4.97348 38.4572 4.84268 38.0663 4.84268C37.4785 4.84268 37.0138 5.13506 36.6721 5.71981C36.3305 6.30149 36.1582 7.15554 36.1551 8.28196C36.152 9.03598 36.2274 9.66998 36.3813 10.1839C36.5383 10.6979 36.7599 11.0857 37.0461 11.3473C37.3323 11.6058 37.6724 11.7351 38.0663 11.7351ZM46.7372 13.18C45.977 13.18 45.3246 12.9877 44.7798 12.603C44.2382 12.2152 43.8211 11.6566 43.5288 10.9272C43.2395 10.1947 43.0948 9.31297 43.0948 8.28196C43.0979 7.25095 43.2441 6.37382 43.5334 5.65057C43.8258 4.92424 44.2428 4.37026 44.7844 3.98864C45.3292 3.60701 45.9801 3.41619 46.7372 3.41619C47.4943 3.41619 48.1452 3.60701 48.69 3.98864C49.2347 4.37026 49.6518 4.92424 49.9411 5.65057C50.2334 6.37689 50.3796 7.25402 50.3796 8.28196C50.3796 9.31605 50.2334 10.1993 49.9411 10.9318C49.6518 11.6612 49.2347 12.2183 48.69 12.603C48.1483 12.9877 47.4974 13.18 46.7372 13.18ZM46.7372 11.7351C47.3281 11.7351 47.7944 11.4442 48.136 10.8626C48.4807 10.2778 48.6531 9.41761 48.6531 8.28196C48.6531 7.53101 48.5746 6.90009 48.4176 6.3892C48.2607 5.87831 48.0391 5.49361 47.7528 5.23509C47.4666 4.97348 47.1281 4.84268 46.7372 4.84268C46.1494 4.84268 45.6847 5.13506 45.343 5.71981C45.0014 6.30149 44.8291 7.15554 44.826 8.28196C44.8229 9.03598 44.8983 9.66998 45.0522 10.1839C45.2092 10.6979 45.4308 11.0857 45.717 11.3473C46.0032 11.6058 46.3433 11.7351 46.7372 11.7351ZM55.759 3.54545V13H54.0463V5.212H53.9909L51.7796 6.62464V5.05504L54.1294 3.54545H55.759ZM59.2075 11.8643C58.9274 11.8643 58.6874 11.7659 58.4873 11.5689C58.2873 11.3688 58.1888 11.1288 58.1919 10.8487C58.1888 10.5717 58.2873 10.3348 58.4873 10.1378C58.6874 9.94081 58.9274 9.84233 59.2075 9.84233C59.4783 9.84233 59.7137 9.94081 59.9138 10.1378C60.1169 10.3348 60.22 10.5717 60.2231 10.8487C60.22 11.0365 60.1708 11.2073 60.0754 11.3612C59.983 11.515 59.8599 11.6381 59.7061 11.7305C59.5552 11.8197 59.3891 11.8643 59.2075 11.8643ZM59.2075 7.17862C58.9274 7.17862 58.6874 7.08014 58.4873 6.88317C58.2873 6.68312 58.1888 6.44306 58.1919 6.163C58.1888 5.88601 58.2873 5.64903 58.4873 5.45206C58.6874 5.25201 58.9274 5.15199 59.2075 5.15199C59.4783 5.15199 59.7137 5.25201 59.9138 5.45206C60.1169 5.64903 60.22 5.88601 60.2231 6.163C60.22 6.34766 60.1708 6.51693 60.0754 6.67081C59.983 6.82469 59.8599 6.9478 59.7061 7.04013C59.5552 7.13246 59.3891 7.17862 59.2075 7.17862ZM61.93 13V11.7628L65.2124 8.5451C65.5263 8.2281 65.7879 7.9465 65.9972 7.70028C66.2064 7.45407 66.3634 7.21555 66.468 6.98473C66.5727 6.75391 66.625 6.50769 66.625 6.24609C66.625 5.94756 66.5573 5.69212 66.4219 5.47976C66.2865 5.26432 66.1003 5.09813 65.8633 4.98118C65.6263 4.86423 65.357 4.80575 65.0554 4.80575C64.7446 4.80575 64.4722 4.87038 64.2383 4.99964C64.0044 5.12583 63.8228 5.30587 63.6935 5.53977C63.5674 5.77367 63.5043 6.0522 63.5043 6.37536H61.8746C61.8746 5.77521 62.0116 5.25355 62.2855 4.81037C62.5594 4.36719 62.9364 4.02403 63.4165 3.78089C63.8997 3.53776 64.4537 3.41619 65.0785 3.41619C65.7125 3.41619 66.2695 3.53468 66.7496 3.77166C67.2298 4.00864 67.6022 4.33333 67.8668 4.74574C68.1346 5.15814 68.2685 5.62902 68.2685 6.15838C68.2685 6.51231 68.2008 6.86009 68.0653 7.2017C67.9299 7.54332 67.6914 7.92187 67.3498 8.33736C67.0112 8.75284 66.5357 9.25604 65.9233 9.84695L64.2937 11.5043V11.5689H68.4116V13H61.93ZM73.4989 13.18C72.7388 13.18 72.0863 12.9877 71.5415 12.603C70.9999 12.2152 70.5829 11.6566 70.2905 10.9272C70.0012 10.1947 69.8565 9.31297 69.8565 8.28196C69.8596 7.25095 70.0058 6.37382 70.2951 5.65057C70.5875 4.92424 71.0045 4.37026 71.5462 3.98864C72.0909 3.60701 72.7418 3.41619 73.4989 3.41619C74.256 3.41619 74.907 3.60701 75.4517 3.98864C75.9964 4.37026 76.4135 4.92424 76.7028 5.65057C76.9951 6.37689 77.1413 7.25402 77.1413 8.28196C77.1413 9.31605 76.9951 10.1993 76.7028 10.9318C76.4135 11.6612 75.9964 12.2183 75.4517 12.603C74.91 12.9877 74.2591 13.18 73.4989 13.18ZM73.4989 11.7351C74.0898 11.7351 74.5561 11.4442 74.8977 10.8626C75.2424 10.2778 75.4148 9.41761 75.4148 8.28196C75.4148 7.53101 75.3363 6.90009 75.1793 6.3892C75.0224 5.87831 74.8008 5.49361 74.5146 5.23509C74.2283 4.97348 73.8898 4.84268 73.4989 4.84268C72.9111 4.84268 72.4464 5.13506 72.1048 5.71981C71.7631 6.30149 71.5908 7.15554 71.5877 8.28196C71.5846 9.03598 71.66 9.66998 71.8139 10.1839C71.9709 10.6979 72.1925 11.0857 72.4787 11.3473C72.7649 11.6058 73.105 11.7351 73.4989 11.7351ZM82.5207 3.54545V13H80.808V5.212H80.7526L78.5413 6.62464V5.05504L80.8911 3.54545H82.5207ZM88.2082 13.1293C87.5927 13.1293 87.0418 13.0138 86.5555 12.783C86.0692 12.5491 85.683 12.229 85.3968 11.8228C85.1136 11.4165 84.9628 10.9518 84.9443 10.4286H86.6063C86.637 10.8164 86.8048 11.1334 87.1095 11.3796C87.4142 11.6228 87.7804 11.7443 88.2082 11.7443C88.5436 11.7443 88.8422 11.6674 89.1038 11.5135C89.3654 11.3596 89.5716 11.1457 89.7224 10.8718C89.8732 10.5979 89.9471 10.2855 89.944 9.93466C89.9471 9.57765 89.8717 9.26065 89.7178 8.98366C89.5639 8.70668 89.3531 8.4897 89.0853 8.33274C88.8176 8.1727 88.5098 8.09268 88.162 8.09268C87.8789 8.08961 87.6003 8.14193 87.3264 8.24964C87.0525 8.35736 86.8356 8.49893 86.6755 8.67436L85.129 8.42045L85.623 3.54545H91.1073V4.97656H87.0402L86.7678 7.48331H86.8232C86.9987 7.27711 87.2464 7.1063 87.5665 6.97088C87.8866 6.83239 88.2374 6.76314 88.6191 6.76314C89.1915 6.76314 89.7024 6.89856 90.1517 7.16939C90.6011 7.43714 90.955 7.80646 91.2135 8.27734C91.472 8.74822 91.6013 9.28681 91.6013 9.89311C91.6013 10.5179 91.4566 11.0749 91.1673 11.5643C90.8811 12.0505 90.4826 12.4337 89.9717 12.7138C89.4639 12.9908 88.876 13.1293 88.2082 13.1293ZM104.557 6.73544H102.831C102.782 6.4523 102.691 6.20147 102.559 5.98295C102.426 5.76136 102.262 5.57363 102.065 5.41974C101.868 5.26586 101.643 5.15045 101.391 5.07351C101.141 4.99349 100.872 4.95348 100.583 4.95348C100.069 4.95348 99.6132 5.08274 99.2162 5.34126C98.8192 5.59671 98.5083 5.97218 98.2836 6.46768C98.059 6.96011 97.9466 7.56179 97.9466 8.27273C97.9466 8.99598 98.059 9.60535 98.2836 10.1009C98.5114 10.5933 98.8222 10.9657 99.2162 11.218C99.6132 11.4673 100.067 11.592 100.578 11.592C100.861 11.592 101.126 11.555 101.372 11.4812C101.621 11.4042 101.844 11.2919 102.041 11.1442C102.242 10.9964 102.409 10.8149 102.545 10.5994C102.683 10.384 102.779 10.1378 102.831 9.8608L104.557 9.87003C104.493 10.3194 104.353 10.741 104.137 11.1349C103.925 11.5289 103.646 11.8767 103.302 12.1783C102.957 12.4768 102.554 12.7107 102.092 12.88C101.631 13.0462 101.118 13.1293 100.555 13.1293C99.724 13.1293 98.9823 12.9369 98.3298 12.5522C97.6773 12.1675 97.1634 11.612 96.7879 10.8857C96.4124 10.1593 96.2247 9.28835 96.2247 8.27273C96.2247 7.25402 96.414 6.38305 96.7925 5.6598C97.1711 4.93348 97.6866 4.37796 98.339 3.99325C98.9915 3.60855 99.7301 3.41619 100.555 3.41619C101.081 3.41619 101.571 3.49006 102.023 3.63778C102.475 3.78551 102.879 4.00249 103.233 4.28871C103.586 4.57185 103.877 4.91963 104.105 5.33203C104.336 5.74136 104.487 6.20916 104.557 6.73544ZM109.191 13.1385C108.48 13.1385 107.866 12.9908 107.349 12.6953C106.835 12.3968 106.44 11.9751 106.163 11.4304C105.886 10.8826 105.747 10.2378 105.747 9.49609C105.747 8.76669 105.886 8.12654 106.163 7.57564C106.443 7.02166 106.834 6.59079 107.335 6.28303C107.837 5.97218 108.426 5.81676 109.104 5.81676C109.541 5.81676 109.953 5.88755 110.341 6.02912C110.732 6.16761 111.076 6.38305 111.375 6.67543C111.676 6.9678 111.913 7.3402 112.086 7.79261C112.258 8.24195 112.344 8.77746 112.344 9.39915V9.91158H106.532V8.78516H110.742C110.739 8.46508 110.67 8.1804 110.535 7.93111C110.399 7.67874 110.21 7.48023 109.967 7.33558C109.727 7.19093 109.447 7.11861 109.127 7.11861C108.785 7.11861 108.485 7.2017 108.226 7.3679C107.968 7.53101 107.766 7.74645 107.622 8.0142C107.48 8.27888 107.408 8.56972 107.405 8.88672V9.87003C107.405 10.2824 107.48 10.6364 107.631 10.9318C107.782 11.2242 107.992 11.4489 108.263 11.6058C108.534 11.7597 108.851 11.8366 109.214 11.8366C109.457 11.8366 109.677 11.8028 109.874 11.7351C110.071 11.6643 110.242 11.5612 110.387 11.4258C110.532 11.2904 110.641 11.1226 110.715 10.9226L112.275 11.098C112.177 11.5104 111.989 11.8705 111.712 12.1783C111.438 12.483 111.087 12.7199 110.659 12.8892C110.231 13.0554 109.742 13.1385 109.191 13.1385ZM113.758 13V5.90909H115.378V7.09091H115.452C115.582 6.68158 115.803 6.36612 116.117 6.14453C116.434 5.91986 116.796 5.80753 117.202 5.80753C117.294 5.80753 117.397 5.81214 117.511 5.82138C117.628 5.82753 117.725 5.8383 117.802 5.85369V7.39098C117.731 7.36636 117.619 7.34482 117.465 7.32635C117.314 7.30481 117.168 7.29403 117.027 7.29403C116.722 7.29403 116.448 7.3602 116.205 7.49254C115.965 7.6218 115.775 7.80185 115.637 8.03267C115.498 8.26349 115.429 8.52971 115.429 8.83132V13H113.758ZM122.834 5.90909V7.2017H118.758V5.90909H122.834ZM119.764 4.21023H121.435V10.8672C121.435 11.0919 121.469 11.2642 121.537 11.3842C121.608 11.5012 121.7 11.5812 121.814 11.6243C121.928 11.6674 122.054 11.6889 122.192 11.6889C122.297 11.6889 122.392 11.6812 122.479 11.6658C122.568 11.6504 122.636 11.6366 122.682 11.6243L122.963 12.9308C122.874 12.9615 122.746 12.9954 122.58 13.0323C122.417 13.0692 122.217 13.0908 121.98 13.0969C121.561 13.1093 121.184 13.0462 120.849 12.9077C120.514 12.7661 120.247 12.5476 120.05 12.2521C119.856 11.9567 119.761 11.5874 119.764 11.1442V4.21023ZM124.232 13V5.90909H125.903V13H124.232ZM125.072 4.9027C124.807 4.9027 124.579 4.81499 124.389 4.63956C124.198 4.46106 124.102 4.24716 124.102 3.99787C124.102 3.7455 124.198 3.5316 124.389 3.35618C124.579 3.17767 124.807 3.08842 125.072 3.08842C125.34 3.08842 125.567 3.17767 125.755 3.35618C125.946 3.5316 126.041 3.7455 126.041 3.99787C126.041 4.24716 125.946 4.46106 125.755 4.63956C125.567 4.81499 125.34 4.9027 125.072 4.9027ZM131.213 5.90909V7.2017H127.021V5.90909H131.213ZM128.069 13V5.2397C128.069 4.76267 128.168 4.36565 128.365 4.04865C128.565 3.73165 128.832 3.49467 129.168 3.33771C129.503 3.18075 129.876 3.10227 130.285 3.10227C130.574 3.10227 130.831 3.12535 131.056 3.17152C131.281 3.21768 131.447 3.25923 131.555 3.29616L131.222 4.58878C131.151 4.56723 131.062 4.54569 130.954 4.52415C130.847 4.49953 130.727 4.48722 130.594 4.48722C130.284 4.48722 130.063 4.56262 129.934 4.71342C129.808 4.86115 129.745 5.07351 129.745 5.3505V13H128.069ZM132.522 13V5.90909H134.193V13H132.522ZM133.362 4.9027C133.097 4.9027 132.87 4.81499 132.679 4.63956C132.488 4.46106 132.392 4.24716 132.392 3.99787C132.392 3.7455 132.488 3.5316 132.679 3.35618C132.87 3.17767 133.097 3.08842 133.362 3.08842C133.63 3.08842 133.857 3.17767 134.045 3.35618C134.236 3.5316 134.331 3.7455 134.331 3.99787C134.331 4.24716 134.236 4.46106 134.045 4.63956C133.857 4.81499 133.63 4.9027 133.362 4.9027ZM139.051 13.1385C138.34 13.1385 137.726 12.9908 137.209 12.6953C136.695 12.3968 136.299 11.9751 136.022 11.4304C135.745 10.8826 135.607 10.2378 135.607 9.49609C135.607 8.76669 135.745 8.12654 136.022 7.57564C136.302 7.02166 136.693 6.59079 137.195 6.28303C137.696 5.97218 138.286 5.81676 138.963 5.81676C139.4 5.81676 139.812 5.88755 140.2 6.02912C140.591 6.16761 140.936 6.38305 141.234 6.67543C141.536 6.9678 141.773 7.3402 141.945 7.79261C142.117 8.24195 142.204 8.77746 142.204 9.39915V9.91158H136.392V8.78516H140.602C140.599 8.46508 140.529 8.1804 140.394 7.93111C140.259 7.67874 140.069 7.48023 139.826 7.33558C139.586 7.19093 139.306 7.11861 138.986 7.11861C138.644 7.11861 138.344 7.2017 138.086 7.3679C137.827 7.53101 137.626 7.74645 137.481 8.0142C137.339 8.27888 137.267 8.56972 137.264 8.88672V9.87003C137.264 10.2824 137.339 10.6364 137.49 10.9318C137.641 11.2242 137.852 11.4489 138.123 11.6058C138.394 11.7597 138.711 11.8366 139.074 11.8366C139.317 11.8366 139.537 11.8028 139.734 11.7351C139.931 11.6643 140.102 11.5612 140.246 11.4258C140.391 11.2904 140.5 11.1226 140.574 10.9226L142.134 11.098C142.036 11.5104 141.848 11.8705 141.571 12.1783C141.297 12.483 140.946 12.7199 140.519 12.8892C140.091 13.0554 139.602 13.1385 139.051 13.1385ZM146.249 13.1246C145.692 13.1246 145.193 12.9815 144.753 12.6953C144.313 12.4091 143.965 11.9936 143.71 11.4489C143.454 10.9041 143.327 10.2424 143.327 9.46378C143.327 8.6759 143.456 8.01113 143.714 7.46946C143.976 6.92472 144.328 6.51385 144.772 6.23686C145.215 5.95679 145.709 5.81676 146.253 5.81676C146.669 5.81676 147.011 5.88755 147.278 6.02912C147.546 6.16761 147.758 6.33535 147.915 6.53232C148.072 6.72621 148.194 6.90933 148.28 7.08168H148.349V3.54545H150.025V13H148.382V11.8828H148.28C148.194 12.0552 148.069 12.2383 147.906 12.4322C147.743 12.623 147.528 12.7861 147.26 12.9215C146.992 13.0569 146.655 13.1246 146.249 13.1246ZM146.715 11.7536C147.069 11.7536 147.371 11.6581 147.62 11.4673C147.869 11.2734 148.059 11.0041 148.188 10.6594C148.317 10.3147 148.382 9.91312 148.382 9.45455C148.382 8.99598 148.317 8.59742 148.188 8.25888C148.062 7.92034 147.874 7.6572 147.625 7.46946C147.378 7.28172 147.075 7.18785 146.715 7.18785C146.343 7.18785 146.032 7.2848 145.783 7.47869C145.533 7.67259 145.346 7.94034 145.219 8.28196C145.093 8.62358 145.03 9.01444 145.03 9.45455C145.03 9.89773 145.093 10.2932 145.219 10.641C145.349 10.9857 145.538 11.258 145.787 11.4581C146.04 11.6551 146.349 11.7536 146.715 11.7536Z" fill="white"/>
</svg>
